<svg width="217" height="235" viewBox="0 0 217 235" fill="none" xmlns="http://www.w3.org/2000/svg">
<path d="M23.2756 145.013C23.5743 146.085 23.7932 147.178 23.9303 148.282C24.0848 149.374 24.1898 150.472 24.2454 151.57C24.301 152.668 24.3195 153.766 24.2886 154.87C24.2703 155.982 24.1691 157.091 23.9859 158.188C23.6882 157.116 23.4673 156.023 23.325 154.919C23.1767 153.827 23.0717 152.736 23.0161 151.638C22.9605 150.54 22.942 149.436 22.9729 148.332C22.9915 147.22 23.0927 146.11 23.2756 145.013Z" fill="#0850EC"/>
<path d="M30.2493 151.249C29.1779 151.548 28.0856 151.767 26.9816 151.903C25.882 152.051 24.7887 152.162 23.6891 152.218C22.5896 152.273 21.4901 152.292 20.3843 152.261C19.2706 152.242 18.1598 152.141 17.061 151.959C18.1316 151.655 19.2241 151.434 20.3288 151.299C21.4283 151.15 22.5216 151.039 23.6212 150.984C24.7207 150.928 25.8203 150.916 26.926 150.947C28.0397 150.965 29.1506 151.066 30.2493 151.249Z" fill="#0850EC"/>
<path d="M110.979 99.3445L23.6274 132.288L96.0547 168.249L190.639 132.288L110.979 99.3445Z" fill="#D86C1D"/>
<path d="M110.979 99.3445L96.0547 168.249L190.639 132.288L110.979 99.3445Z" fill="#F46534"/>
<path d="M110.979 99.4186L190.64 132.289L216.417 133.09L137.658 97.7471L110.979 99.4186Z" fill="#FFCD52"/>
<path d="M0.5 121.402L86.8877 90.7278L110.979 99.3447L23.6273 132.289L0.5 121.402Z" fill="#FFCD52"/>
<path d="M132.093 96.711C131.811 99.8899 131.053 103.009 129.844 105.963C128.362 109.541 126.879 111.157 126.187 114.666C125.685 116.884 125.685 119.185 126.187 121.402C126.688 123.456 127.62 125.183 130.69 128.983C134.211 133.35 135.41 134.084 137.72 136.847C139.944 139.518 141.575 142.497 144.743 148.357C148.87 155.974 150.921 159.786 151.211 161.273C153.293 172.295 139.079 183.657 136.874 185.415C119.609 199.213 94.5416 199.669 76.1398 192.434C68.4868 189.608 61.5685 185.099 55.8973 179.24C44.5374 167.324 42.2519 153.415 41.2759 146.95C40.5223 141.917 37.8661 122.457 48.5897 104.279C59.48 85.8181 73.391 86.953 78.1103 70.3053C81.7055 57.6298 76.7946 45.824 79.5126 45.016C82.3911 44.1833 85.35 58.1109 98.6618 65.2289C102.8 67.4432 103.943 66.8573 109.836 70.0339C117.749 74.3022 119.355 77.3369 124.81 80.9514C137.411 89.2969 148.901 86.3732 149.518 89.9322C149.883 91.8937 146.893 95.3787 130.4 102.003L132.093 96.711Z" fill="#2579F2"/>
<path d="M96.0547 168.248L94.3745 235L23.6274 196.301V132.288L96.0547 168.248Z" fill="#FFCD52"/>
<path d="M96.0547 168.248L94.3745 235L186.785 203.974L190.639 132.288L96.0547 168.248Z" fill="#FFD26E"/>
<path d="M139.122 150.614C138.616 146.05 142.705 144.563 147.56 136.298C151.001 130.432 152.681 124.807 154.868 117.485C157.499 108.677 157.116 106.45 159.927 103.73C163.479 100.288 169.81 98.29 174.548 100.646C180.528 103.619 181.053 112.15 181.3 116.067C182.226 131.172 171.954 142.429 168.081 146.673C163.528 151.657 154.491 161.538 146.461 159.009C142.841 157.917 139.542 154.383 139.122 150.614Z" fill="#2579F2"/>
<path d="M88.8767 72.1802L102.3 77.4169C102.3 77.4169 100.162 89.4571 92.7992 87.2551C85.436 85.053 88.8767 72.1802 88.8767 72.1802Z" fill="white"/>
<path d="M88.8767 72.1802L102.3 77.4169C102.3 77.4169 100.162 89.4571 92.7992 87.2551C85.436 85.053 88.8767 72.1802 88.8767 72.1802Z" stroke="#63717C" stroke-linecap="round" stroke-linejoin="round"/>
<path d="M95.5852 74.7954C95.5852 74.7954 90.0257 84.0476 92.7992 87.255C92.7992 87.255 97.3148 83.7762 95.5852 74.7954Z" fill="#63717C"/>
<path d="M107.18 79.5017L117.063 88.3345C117.063 88.3345 111.337 98.0431 105.691 93.7747C100.045 89.5064 107.18 79.5017 107.18 79.5017Z" fill="white"/>
<path d="M107.18 79.5017L117.063 88.3345C117.063 88.3345 111.337 98.0431 105.691 93.7747C100.045 89.5064 107.18 79.5017 107.18 79.5017Z" stroke="#63717C" stroke-linecap="round" stroke-linejoin="round"/>
<path d="M112.128 83.9058C112.128 83.9058 104.382 90.0739 105.704 93.7748C105.704 93.7624 110.726 92.2142 112.128 83.9058Z" fill="#63717C"/>
<path d="M86.7026 87.1442C86.1751 86.4874 85.6012 85.869 84.9854 85.2938C84.382 84.7056 83.7425 84.1556 83.0705 83.6469C81.7399 82.6195 80.2876 81.7598 78.7464 81.0872C77.2134 80.4031 75.6012 79.912 73.9468 79.6253C72.2764 79.3355 70.5831 79.1971 68.8877 79.212C69.2995 79.1627 69.7257 79.1195 70.1664 79.0825C70.5906 79.0292 71.0175 79.0004 71.445 78.9962C72.3062 78.9941 73.1667 79.0476 74.0209 79.1565C75.7278 79.3617 77.3939 79.8234 78.9627 80.5259C80.5481 81.2195 82.0202 82.1468 83.3299 83.2768C84.6637 84.3677 85.8039 85.6751 86.7026 87.1442ZM82.5763 89.0132C81.1475 88.1929 79.6253 87.5468 78.0423 87.0887C76.4741 86.6194 74.8615 86.3135 73.2302 86.1759C72.8225 86.1142 72.4087 86.1327 71.9948 86.1018C71.5833 86.0798 71.1709 86.0798 70.7594 86.1018H69.5239L68.2885 86.219C66.6471 86.4095 65.0207 86.7125 63.4209 87.1257C64.1992 86.8297 64.9775 86.5089 65.7744 86.2869C66.5879 86.0644 67.4127 85.8852 68.2453 85.7503C69.9015 85.4678 71.587 85.3973 73.2611 85.5405C74.9491 85.6792 76.6111 86.0422 78.2029 86.62C78.9891 86.9069 79.7566 87.2427 80.5008 87.6254C81.234 88.023 81.9288 88.4876 82.5763 89.0132ZM80.3278 91.8382C79.6174 91.8382 78.9071 91.8073 78.1967 91.8382C77.4863 91.869 76.7821 91.8382 76.0779 91.8999C74.6697 91.9724 73.267 92.1289 71.8774 92.3686C70.4967 92.6017 69.1417 92.9673 67.8314 93.4604C67.4978 93.5776 67.2137 93.7441 66.8739 93.886C66.7133 93.96 66.5527 94.0279 66.3983 94.1142L65.9474 94.3856C65.3351 94.7475 64.7545 95.1602 64.2116 95.6192C64.681 95.0776 65.207 94.5876 65.7806 94.1574L66.2192 93.8367C66.3674 93.738 66.5342 93.6578 66.6886 93.5653C67.0037 93.3987 67.3063 93.1952 67.6399 93.0471C68.957 92.4492 70.346 92.0242 71.7724 91.7827C74.6078 91.3155 77.5032 91.3468 80.3278 91.8752V91.8382ZM108.212 97.1489C109.922 96.9576 111.653 97.0513 113.332 97.4265C115.028 97.7741 116.661 98.3773 118.175 99.2153C119.699 100.026 121.089 101.066 122.295 102.299C122.902 102.907 123.465 103.557 123.982 104.242C124.245 104.581 124.484 104.938 124.698 105.309C124.927 105.667 125.155 106.031 125.372 106.395C124.351 105.045 123.212 103.788 121.968 102.639C120.73 101.507 119.359 100.53 117.885 99.7272C116.412 98.923 114.845 98.3016 113.221 97.8768C112.41 97.6516 111.584 97.4785 110.75 97.3587C109.91 97.2302 109.062 97.1601 108.212 97.1489ZM109.237 101.559C110.047 101.76 110.837 102.035 111.597 102.38C112.354 102.747 113.088 103.159 113.796 103.613C115.213 104.52 116.504 105.609 117.638 106.851C118.77 108.092 119.741 109.47 120.529 110.953C120.921 111.691 121.273 112.448 121.585 113.223C121.882 114 122.116 114.802 122.357 115.592C121.709 114.075 120.96 112.604 120.115 111.188L119.46 110.151L118.737 109.109C118.504 108.773 118.252 108.449 117.984 108.141C117.712 107.838 117.477 107.524 117.181 107.215C116.079 106.007 114.856 104.916 113.53 103.959C112.199 102.992 110.758 102.187 109.237 101.559ZM108.372 105.05C110.512 106.966 112.3 109.242 113.654 111.774C114.329 113.052 114.836 114.412 115.161 115.82C115.247 116.165 115.272 116.529 115.328 116.887C115.328 117.066 115.389 117.245 115.402 117.424V117.966C115.412 118.683 115.343 119.399 115.198 120.101C115.223 119.394 115.192 118.687 115.105 117.985L115.05 117.467C115.05 117.294 114.976 117.121 114.938 116.949C114.852 116.609 114.803 116.264 114.691 115.931C114.287 114.591 113.753 113.294 113.098 112.057C112.442 110.813 111.714 109.608 110.917 108.449C110.522 107.832 110.108 107.295 109.682 106.728C109.255 106.161 108.823 105.605 108.372 105.05Z" fill="#0234C1"/>
<path d="M95.9375 173.029L120.405 201.631L188.546 173.331L190.393 137.1L96.0549 168.249L95.9375 173.029Z" fill="#D8821D"/>
<path d="M70.7963 190.892L95.9374 173.011L96.0547 168.249L23.6274 136.97V162.278L70.7963 190.892Z" fill="#D8821D"/>
<path d="M82.718 62.4348L82.2856 52.7385L88.1045 61.1827C88.1045 61.1827 85.3742 59.2459 82.718 62.4348ZM133.155 91.8382L142.853 91.2214L134.489 97.1675C134.489 97.1675 136.385 94.4165 133.155 91.8382Z" fill="#FFCCD8"/>
<path d="M70.7962 186.21L5.34912 146.512L23.6274 132.288L96.0546 168.248L70.7962 186.21Z" fill="#FFCD52"/>
<path d="M209.758 159.804L120.535 196.862L96.0547 168.248L190.639 132.288L209.758 159.804Z" fill="#FFCD52"/>
<path d="M23.6278 166.472C24.6006 165.5 25.6545 164.613 26.7781 163.82C27.8818 163 29.0559 162.28 30.2867 161.667C29.3153 162.641 28.2612 163.528 27.1364 164.32C26.0297 165.135 24.856 165.855 23.6278 166.472ZM23.6278 171.734C25.2682 170.282 26.9837 168.917 28.7672 167.644C30.5342 166.35 32.3694 165.152 34.2648 164.054C32.6293 165.509 30.9157 166.875 29.1316 168.144C27.3625 169.438 25.5252 170.636 23.6278 171.734ZM23.6216 177.618C24.8138 176.668 26.043 175.768 27.2846 174.904C28.5263 174.041 29.7555 173.171 31.0404 172.326C32.3252 171.481 33.5792 170.66 34.8764 169.859L36.8222 168.674C37.4831 168.292 38.1317 167.903 38.7989 167.539C38.1812 168.014 37.5635 168.458 36.989 168.921L35.1358 170.253C33.9004 171.135 32.665 171.987 31.3801 172.825C30.0953 173.664 28.8413 174.491 27.5441 175.293C26.2469 176.094 24.9559 176.884 23.6216 177.618ZM23.6278 185.723C25.3635 184.378 27.1426 183.083 28.9278 181.794C30.713 180.505 32.5105 179.253 34.3143 178C36.118 176.748 37.9464 175.533 39.7872 174.3L42.5546 172.505C43.4874 171.925 44.4078 171.327 45.3529 170.759C44.4881 171.444 43.5985 172.091 42.7276 172.751L40.059 174.694C38.28 175.983 36.4763 177.236 34.6664 178.488C32.8565 179.74 31.0342 180.955 29.1934 182.189C27.3526 183.422 25.5118 184.588 23.6278 185.723ZM23.6216 193.674C25.8762 191.971 28.168 190.33 30.4659 188.69C32.7638 187.049 35.0926 185.464 37.409 183.848C39.7255 182.232 42.0728 180.677 44.4263 179.123L47.9658 176.804C49.158 176.045 50.344 175.274 51.5424 174.534C50.4181 175.391 49.2754 176.212 48.1388 177.051L44.6981 179.518C42.4002 181.159 40.0714 182.75 37.7549 184.366C35.4385 185.982 33.0912 187.536 30.7315 189.091C28.3718 190.645 26.0183 192.181 23.6216 193.674ZM28.9463 199.046C31.2566 197.313 33.6101 195.629 35.9636 193.951C38.3171 192.273 40.7076 190.651 43.0735 189.017C45.4393 187.382 47.8546 185.772 50.2637 184.181L53.8897 181.8C55.1251 181.023 56.3173 180.233 57.5466 179.475C56.3976 180.35 55.224 181.189 54.0565 182.047L50.5355 184.569C48.1758 186.241 45.7914 187.876 43.4256 189.504C41.0597 191.132 38.6445 192.755 36.2292 194.346C33.8139 195.937 31.4048 197.523 28.9463 199.046ZM36.0624 203.08C38.3727 201.341 40.72 199.657 43.0797 197.985C45.4393 196.314 47.8175 194.679 50.1896 193.051C52.5616 191.422 54.9645 189.8 57.3798 188.209L60.9996 185.828C62.2351 185.057 63.4334 184.261 64.6627 183.502C63.5076 184.378 62.3339 185.223 61.1726 186.081L57.6454 188.603C55.2919 190.275 52.9075 191.903 50.5355 193.538C48.1635 195.172 45.7544 196.789 43.3453 198.38C40.9362 199.971 38.5147 201.55 36.0624 203.08ZM43.2217 206.88C45.532 205.14 47.8855 203.456 50.239 201.785C52.5925 200.113 54.9831 198.479 57.3489 196.85C59.7148 195.222 62.13 193.6 64.5391 192.008L68.1651 189.627C69.4006 188.85 70.5928 188.061 71.822 187.302C70.6731 188.178 69.4994 189.017 68.3381 189.874L64.8418 192.378C62.4821 194.05 60.0978 195.684 57.7319 197.313C55.3661 198.941 52.9508 200.563 50.5355 202.155C48.1202 203.746 45.6926 205.331 43.2217 206.88ZM50.3625 210.494C54.0688 207.799 57.806 205.165 61.5494 202.537L72.8351 194.716L84.2011 187.012L89.9149 183.206L95.6597 179.45L90.1003 183.453L84.4914 187.407L73.2057 195.222L61.8397 202.926C58.0469 205.473 54.2109 208.008 50.3625 210.494ZM95.5671 187.444C92.3796 189.782 89.1552 192.064 85.9245 194.34C82.6938 196.616 79.4261 198.849 76.1831 201.125C72.9401 203.401 69.6477 205.578 66.3614 207.774L61.4197 211.049C59.7642 212.129 58.1149 213.22 56.4471 214.281C58.0346 213.103 59.653 211.962 61.2529 210.802L66.0896 207.379C69.3264 205.103 72.588 202.87 75.831 200.594C79.074 198.318 82.3664 196.141 85.6527 193.951C88.9389 191.761 92.2376 189.572 95.5671 187.444ZM95.357 195.956C92.7503 197.899 90.1064 199.78 87.4626 201.655C84.8188 203.53 82.1317 205.356 79.4693 207.206C76.807 209.057 74.1076 210.883 71.402 212.659L67.3127 215.342C65.9414 216.212 64.5886 217.106 63.211 217.964C64.5083 216.989 65.8302 216.052 67.1397 215.089L71.1055 212.271C73.7555 210.42 76.4302 208.57 79.0987 206.719C81.7673 204.869 84.4605 203.068 87.1661 201.279C89.8717 199.49 92.6391 197.689 95.357 195.956ZM95.1099 205.134C93.1332 206.645 91.1195 208.095 89.1057 209.538C87.092 210.981 85.035 212.388 83.0027 213.813C80.9704 215.237 78.8949 216.601 76.8255 217.964L73.7369 219.993C72.6806 220.653 71.6429 221.331 70.5804 221.973C71.5626 221.214 72.5695 220.486 73.564 219.746L76.5846 217.569C78.6045 216.126 80.6492 214.725 82.6877 213.301C84.7261 211.876 86.7893 210.513 88.8648 209.149C90.9404 207.786 93.0035 206.435 95.1099 205.134ZM94.9061 213.967C93.5348 215.059 92.1202 216.101 90.7056 217.131C89.291 218.161 87.8579 219.16 86.4187 220.153C84.9794 221.146 83.5216 222.121 82.0452 223.065L79.8338 224.453C79.0802 224.903 78.3451 225.372 77.5791 225.81C78.2648 225.261 78.969 224.742 79.6609 224.206L81.7796 222.651C83.188 221.615 84.6273 220.616 86.0666 219.623C87.5058 218.63 88.9637 217.655 90.44 216.712C91.9163 215.768 93.3865 214.824 94.9061 213.967ZM94.6837 222.664C91.5439 225.316 88.1436 227.645 84.5346 229.615C86.095 228.279 87.7305 227.033 89.4331 225.884C91.1215 224.713 92.8744 223.638 94.6837 222.664ZM94.4922 229.85C93.9237 230.504 93.2692 231.079 92.5464 231.558C91.8392 232.057 91.0685 232.459 90.2547 232.755C91.4134 231.461 92.8668 230.465 94.4922 229.85Z" fill="#D8821D"/>
<path d="M90.6558 102.99C90.7528 102.054 91.0341 101.146 91.4835 100.319C91.9039 99.4825 92.4637 98.7233 93.139 98.074C92.8399 98.9456 92.4701 99.7914 92.0333 100.603C91.6155 101.422 91.1557 102.218 90.6558 102.99Z" fill="#0234C1"/>
<path d="M91.7619 90.0679L100.478 94.8543C100.478 94.8543 89.7852 105.501 91.7619 90.0679Z" fill="#FFCCD8"/>
<path d="M194.562 47.2609L139.634 35.449C138.605 35.2276 137.682 34.6606 137.02 33.8424C136.358 33.0242 135.997 32.0043 135.996 30.9524V5.60143C135.996 4.38106 136.482 3.21067 137.346 2.34774C138.21 1.48481 139.382 1.00002 140.604 1.00002H195.501C196.107 0.998394 196.707 1.11621 197.268 1.34673C197.829 1.57725 198.338 1.91593 198.767 2.34337C199.196 2.77081 199.537 3.27862 199.769 3.8377C200.002 4.39677 200.121 4.99613 200.121 5.60143V42.7644C200.122 43.4491 199.969 44.1253 199.673 44.7434C199.378 45.3616 198.949 45.906 198.416 46.337C197.883 46.768 197.26 47.0747 196.594 47.2345C195.927 47.3944 195.233 47.4034 194.562 47.2609V47.2609Z" stroke="#2579F2" stroke-linecap="round" stroke-linejoin="round"/>
<path d="M141.136 35.77L143.292 41.7839L152.996 38.3236L141.136 35.77Z" stroke="#2579F2" stroke-linecap="round" stroke-linejoin="round"/>
<path d="M152.594 38.4655L152.996 38.3236L141.136 35.77L141.902 37.898L152.594 38.4655Z" fill="#2579F2"/>
<path d="M168.08 31.1868H166.32L163.979 8.43878L169.884 7.17432L168.08 31.1868Z" fill="#2579F2"/>
<path d="M167.104 35.7697C167.869 35.7697 168.488 35.1511 168.488 34.388C168.488 33.6249 167.869 33.0063 167.104 33.0063C166.34 33.0063 165.721 33.6249 165.721 34.388C165.721 35.1511 166.34 35.7697 167.104 35.7697Z" fill="#2579F2"/>
<path d="M59.8379 135.724C58.4668 134.986 57.1788 134.103 55.9957 133.09C54.8392 132.045 53.8032 130.874 52.9071 129.599C51.1307 127.008 49.8723 124.099 49.2008 121.032C48.5354 117.978 48.2614 114.853 48.3854 111.73C48.4894 108.623 48.9285 105.535 49.695 102.521C49.4355 104.051 49.2193 105.605 49.0773 107.123C48.9352 108.64 48.8487 110.207 48.8487 111.743C48.798 114.818 49.1132 117.889 49.7876 120.89C50.4253 123.895 51.6104 126.757 53.2839 129.334C54.1284 130.615 55.1102 131.8 56.2119 132.868C57.3274 133.933 58.5415 134.889 59.8379 135.724ZM41.9859 121.13C42.0662 123.265 42.2021 125.393 42.4677 127.496C42.7362 129.598 43.149 131.68 43.7031 133.726C44.2431 135.769 44.9731 137.758 45.8837 139.666C46.8043 141.577 47.9467 143.374 49.2873 145.02C48.9167 144.637 48.5522 144.249 48.1877 143.854C47.8233 143.459 47.5144 143.021 47.1747 142.62C46.835 142.219 46.557 141.732 46.2728 141.282C45.9761 140.834 45.7039 140.371 45.4574 139.894C44.4443 137.993 43.6546 135.981 43.1039 133.898C42.5537 131.822 42.1919 129.699 42.0229 127.558C41.837 125.42 41.8246 123.27 41.9859 121.13ZM127.997 125.386C128.554 126.723 128.968 128.114 129.232 129.538C129.463 130.965 129.556 132.41 129.51 133.855C129.347 136.761 128.722 139.622 127.657 142.33C126.59 145.022 125.233 147.591 123.611 149.991C121.997 152.393 120.134 154.617 118.052 156.628C119.003 155.551 119.903 154.432 120.751 153.273C121.616 152.131 122.425 150.947 123.185 149.732C124.727 147.326 126.025 144.772 127.058 142.108C127.573 140.78 128.002 139.42 128.343 138.037C128.647 136.649 128.854 135.241 128.96 133.824C129.177 130.976 128.85 128.113 127.997 125.386ZM136.138 153.007C136.569 151.554 136.926 150.08 137.207 148.591C137.482 147.111 137.641 145.611 137.683 144.107C137.722 142.604 137.625 141.101 137.392 139.616C137.276 138.87 137.119 138.131 136.923 137.402C136.824 137.038 136.731 136.674 136.62 136.31C136.509 135.946 136.379 135.589 136.268 135.225C136.447 135.564 136.614 135.909 136.774 136.255C136.935 136.6 137.065 136.964 137.213 137.322C137.463 138.047 137.669 138.786 137.831 139.536C138.167 141.042 138.317 142.583 138.276 144.125C138.234 145.666 138.027 147.199 137.658 148.696C137.299 150.181 136.789 151.625 136.138 153.007Z" fill="#0234C1"/>
</svg>
